<svg width="104" height="104" viewBox="0 0 104 104" fill="none" xmlns="http://www.w3.org/2000/svg">
<path fill-rule="evenodd" clip-rule="evenodd" d="M13.0945 17.584L77.3345 81.8238H13.0945V17.584Z" fill="#333333"/>
<path fill-rule="evenodd" clip-rule="evenodd" d="M88.2611 60.9206L43.0794 15.7386C39.3199 11.9791 33.1681 11.9791 29.4092 15.7386C25.6485 19.4987 25.6485 25.65 29.408 29.4095L74.5903 74.5915C78.3498 78.351 84.501 78.351 88.2611 74.5903C92.0206 70.8314 92.0206 64.6801 88.2611 60.9206Z" fill="#DDB71E"/>
<path fill-rule="evenodd" clip-rule="evenodd" d="M19.4017 8H84.5977C90.8683 8 95.9994 13.1311 95.9994 19.4024V84.5976C95.9994 90.8689 90.8683 95.9994 84.5977 95.9994H19.4017C13.1304 95.9994 8 90.8689 8 84.5976V19.4024C8 13.1311 13.1304 8 19.4017 8Z" stroke="#333333" stroke-width="1.33342" stroke-miterlimit="22.9256"/>
</svg>
