<svg width="24" height="24" viewBox="0 0 24 24" fill="none" xmlns="http://www.w3.org/2000/svg">
<g id="icons / location">
<path id="Vector" d="M12 4C13.8565 4 15.637 4.72245 16.9497 6.00841C18.2625 7.29437 19 9.03852 19 10.8571C19 13.696 16.7911 16.6705 12.4667 19.8476C12.332 19.9465 12.1683 20 12 20C11.8317 20 11.668 19.9465 11.5333 19.8476C7.20889 16.6705 5 13.696 5 10.8571C5 9.03852 5.7375 7.29437 7.05025 6.00841C8.36301 4.72245 10.1435 4 12 4ZM12 8.57143C11.3812 8.57143 10.7877 8.81224 10.3501 9.2409C9.9125 9.66955 9.66667 10.2509 9.66667 10.8571C9.66667 11.4634 9.9125 12.0447 10.3501 12.4734C10.7877 12.902 11.3812 13.1429 12 13.1429C12.6188 13.1429 13.2123 12.902 13.6499 12.4734C14.0875 12.0447 14.3333 11.4634 14.3333 10.8571C14.3333 10.2509 14.0875 9.66955 13.6499 9.2409C13.2123 8.81224 12.6188 8.57143 12 8.57143Z" stroke="white"/>
</g>
</svg>
