<svg width="24" height="24" viewBox="0 0 24 24" fill="none" xmlns="http://www.w3.org/2000/svg">
<g id="arcticons:mail">
<path id="Vector" d="M19.2258 7.87875L12 13.5101L4.77419 7.87875M3.92166 6.01464C3.67722 6.01464 3.44279 6.11747 3.26995 6.3005C3.0971 6.48353 3 6.73177 3 6.99062V18.024C3 18.2829 3.0971 18.5311 3.26995 18.7141C3.44279 18.8972 3.67722 19 3.92166 19H20.0783C20.3228 19 20.5572 18.8972 20.7301 18.7141C20.9029 18.5311 21 18.2829 21 18.024V6.97598C21 6.71713 20.9029 6.46889 20.7301 6.28586C20.5572 6.10283 20.3228 6 20.0783 6H3.92166V6.01464Z" stroke="white" stroke-linecap="round" stroke-linejoin="round"/>
</g>
</svg>
