<svg width="18" height="18" viewBox="0 0 18 18" fill="none" xmlns="http://www.w3.org/2000/svg">
<path d="M17.1511 14.5104L13.0857 10.814C12.9896 10.7267 12.8631 10.68 12.7333 10.684C12.6034 10.688 12.4801 10.7423 12.3895 10.8355L9.9965 13.2966L9.8087 13.4896L9.5442 13.4391C8.8892 13.314 7.6344 12.9143 6.3589 11.642C5.08352 10.3656 4.68262 9.1066 4.56053 8.4539L4.51128 8.1906L4.70322 8.0037L7.1622 5.60974C7.2554 5.5193 7.3104 5.39556 7.3144 5.26575C7.3184 5.13595 7.2718 5.00967 7.1843 4.91365L3.48906 0.84935C3.40158 0.75303 3.27981 0.6944 3.14995 0.68628C3.02014 0.67816 2.89228 0.72094 2.7935 0.80554L0.640929 2.65159C0.561279 2.7369 0.513849 2.84755 0.507199 2.96441L0.507109 2.96594C0.494339 3.17878 0.21795 8.9118 4.65252 13.3484C8.51868 17.2135 13.3719 17.5 14.705 17.5C14.8978 17.5 15.0117 17.4942 15.0337 17.4929L15.0361 17.4928C15.1522 17.4863 15.2621 17.4388 15.3465 17.3592M17.1511 14.5104C17.2472 14.5975 17.3054 14.7188 17.3133 14.8482C17.3213 14.9777 17.2783 15.1051 17.1935 15.2033L17.1923 15.2047L15.3465 17.3592M17.1511 14.5104L16.2488 15.9348L15.3465 17.3592" stroke="white"/>
</svg>

