<svg width="175" height="72" viewBox="0 0 175 72" fill="none" xmlns="http://www.w3.org/2000/svg">
<g clip-path="url(#clip0_82_399)">
<path d="M164.053 27.0141H171.914V24.6113H164.053V27.0141ZM175 31.1866C175.009 30.8035 174.934 30.4232 174.78 30.0731C174.644 29.7707 174.445 29.5018 174.196 29.2851C173.952 29.0752 173.67 28.9155 173.366 28.8149C173.053 28.709 172.724 28.6558 172.394 28.6573C171.643 28.6573 170.92 29.0017 170.224 29.6907L163.127 36.762V28.9001H160.487V36.6044C160.485 36.993 160.545 37.3794 160.663 37.749C160.773 38.0933 160.946 38.4134 161.174 38.692C161.396 38.9599 161.672 39.1766 161.983 39.3276C162.327 39.491 162.703 39.5723 163.083 39.5653C163.493 39.5655 163.899 39.4774 164.273 39.3069C164.661 39.1341 165.006 38.8744 165.281 38.5473L172.365 31.5199V39.4102H175V31.1866ZM159.08 31.1866C159.089 30.7961 159.014 30.4083 158.861 30.0498C158.726 29.7503 158.526 29.4854 158.276 29.2747C158.03 29.0697 157.748 28.9145 157.444 28.8174C157.13 28.7162 156.801 28.6657 156.471 28.6676C155.721 28.6676 154.998 29.0121 154.302 29.701L147.215 36.7775V28.9001H144.568V36.6044C144.566 36.993 144.625 37.3794 144.744 37.749C144.852 38.0938 145.025 38.4141 145.254 38.692C145.476 38.9604 145.752 39.1773 146.064 39.3276C146.407 39.491 146.782 39.5723 147.161 39.5653C147.557 39.5645 147.947 39.4818 148.31 39.3224C148.71 39.1413 149.067 38.8772 149.359 38.5473L156.443 31.5199V39.4102H159.08V31.1866ZM140.509 33.8038H130.787V28.8278H127.941V32.8117C127.93 33.3571 128.036 33.8983 128.252 34.398C128.449 34.8427 128.74 35.238 129.105 35.5555C129.479 35.8777 129.913 36.121 130.381 36.2712C130.891 36.4366 131.424 36.5186 131.959 36.514H140.511V39.4025H143.161V28.8278H140.509V33.8038ZM122.868 36.6044H113.499V31.6439H122.868V36.6044ZM110.331 39.4077H126.532V36.6044H125.447V32.1115C125.455 31.6637 125.356 31.2204 125.158 30.8197C124.972 30.4386 124.711 30.0994 124.392 29.8225C124.065 29.5416 123.691 29.322 123.287 29.174C122.871 29.0209 122.432 28.9431 121.99 28.944H114.431C113.991 28.9429 113.554 29.0225 113.142 29.1791C112.744 29.3299 112.378 29.5552 112.062 29.8431C111.752 30.1279 111.502 30.4721 111.324 30.8559C111.137 31.2598 111.043 31.7015 111.049 32.1477V36.5993H110.331V39.4077ZM106.198 31.631V36.7207H96.9825V31.631H106.198ZM97.9833 28.9001C97.5228 28.9006 97.0656 28.9783 96.6302 29.1301C96.2032 29.2755 95.8036 29.493 95.4483 29.7734C95.107 30.0423 94.8216 30.3769 94.6084 30.7577C94.3975 31.1425 94.2884 31.5759 94.2918 32.0159V36.005C94.2867 36.4657 94.3735 36.9227 94.5471 37.3485C94.7075 37.7465 94.9444 38.1084 95.2441 38.413C95.5435 38.7157 95.9004 38.9539 96.2933 39.1131C96.7087 39.2857 97.1538 39.3735 97.6029 39.3715H105.611C106.039 39.3715 106.463 39.2836 106.857 39.1131C107.247 38.9463 107.605 38.711 107.914 38.4181C108.218 38.1286 108.467 37.7843 108.646 37.4028C108.83 37.0178 108.924 36.5953 108.922 36.1678V32.2588C108.922 31.8207 108.831 31.3876 108.654 30.9877C108.483 30.5879 108.238 30.2242 107.934 29.9155C107.632 29.6101 107.28 29.3609 106.893 29.1791C106.504 28.9948 106.081 28.8996 105.652 28.9001H97.9833ZM78.3723 28.8562V31.5457H90.1665V32.7729H78.3723V35.5038H90.1665V36.6871H78.4234V39.3741H89.5538C90.0124 39.3815 90.4677 39.2936 90.8915 39.1157C91.2869 38.9482 91.6449 38.7017 91.944 38.3909C92.2432 38.0802 92.4773 37.7116 92.6325 37.3072C92.8015 36.8727 92.8881 36.4099 92.8878 35.943C92.8978 35.2642 92.6565 34.6061 92.2113 34.0983C92.3976 33.7811 92.5467 33.443 92.6555 33.0907C92.7636 32.7509 92.8187 32.3962 92.8189 32.0392C92.825 31.5841 92.7262 31.1338 92.5304 30.7241C92.3461 30.3431 92.0853 30.0052 91.7645 29.732C91.4298 29.4537 91.0473 29.24 90.6362 29.1016C90.2081 28.9535 89.7586 28.8784 89.3061 28.8794L78.3723 28.8562Z" fill="white"/>
<path d="M139.523 43.4953C139.525 43.3005 139.504 43.1061 139.459 42.9166C139.424 42.7543 139.352 42.6023 139.25 42.4722C139.144 42.3434 139.007 42.2446 138.852 42.1854C138.652 42.1125 138.441 42.0783 138.229 42.0847C138.014 42.0775 137.8 42.1163 137.601 42.1984C137.443 42.2655 137.303 42.369 137.192 42.5006C137.088 42.631 137.013 42.7826 136.973 42.945C136.93 43.1209 136.909 43.3013 136.909 43.4824C136.907 43.6823 136.929 43.8817 136.973 44.0766C137.009 44.2409 137.081 44.3952 137.182 44.5288C137.287 44.6572 137.423 44.7553 137.578 44.813C137.779 44.8837 137.991 44.917 138.203 44.9111C138.418 44.9189 138.632 44.8801 138.831 44.7975C138.99 44.731 139.13 44.6264 139.24 44.4926C139.345 44.361 139.42 44.2074 139.459 44.043C139.503 43.8639 139.525 43.6799 139.523 43.4953ZM140.598 43.454C140.603 43.7602 140.55 44.0645 140.442 44.3505C140.344 44.609 140.186 44.8395 139.98 45.0222C139.757 45.2152 139.496 45.3587 139.214 45.4434C138.875 45.5448 138.522 45.5936 138.168 45.588C137.823 45.5939 137.48 45.5522 137.146 45.464C136.878 45.3945 136.628 45.2666 136.414 45.0894C136.216 44.9162 136.066 44.6947 135.977 44.4461C135.874 44.1501 135.825 43.8376 135.832 43.5237C135.827 43.2235 135.88 42.9252 135.987 42.6453C136.087 42.3901 136.246 42.1626 136.449 41.9813C136.673 41.7879 136.934 41.6444 137.215 41.5602C137.556 41.4566 137.911 41.4069 138.267 41.4129C138.611 41.4074 138.955 41.4482 139.288 41.5344C139.556 41.6034 139.805 41.7313 140.018 41.909C140.217 42.0797 140.37 42.2983 140.463 42.5446C140.563 42.8366 140.609 43.145 140.598 43.454ZM135.339 44.9086C135.342 44.9524 135.342 44.9965 135.339 45.0403C135.336 45.0719 135.331 45.1031 135.321 45.1333C135.316 45.1584 135.305 45.1822 135.29 45.2031C135.273 45.2263 135.252 45.2471 135.229 45.2651C135.178 45.3017 135.122 45.3321 135.063 45.3555C134.966 45.3974 134.866 45.4337 134.765 45.464C134.632 45.4998 134.497 45.5274 134.361 45.5467C134.198 45.5703 134.033 45.5815 133.869 45.5803C133.553 45.5849 133.239 45.5422 132.937 45.4537C132.676 45.3776 132.435 45.2473 132.227 45.0713C132.031 44.8991 131.878 44.6821 131.78 44.4383C131.565 43.8542 131.57 43.2101 131.796 42.6298C131.904 42.3733 132.068 42.1447 132.276 41.9607C132.49 41.774 132.74 41.6342 133.011 41.5499C133.317 41.4538 133.637 41.4067 133.958 41.4104C134.093 41.4092 134.228 41.4187 134.361 41.4388C134.483 41.4547 134.603 41.4788 134.721 41.5111C134.823 41.5389 134.923 41.5734 135.02 41.6145C135.085 41.642 135.146 41.6766 135.204 41.7178C135.23 41.7384 135.254 41.7618 135.275 41.7876C135.289 41.8099 135.299 41.8343 135.306 41.8599C135.315 41.8937 135.321 41.9283 135.324 41.9632C135.327 42.0114 135.327 42.0597 135.324 42.1079C135.327 42.1604 135.327 42.213 135.324 42.2655C135.321 42.302 135.312 42.3378 135.298 42.3715C135.288 42.3946 135.272 42.4149 135.252 42.4309C135.233 42.4431 135.211 42.4494 135.188 42.449C135.135 42.4438 135.084 42.4251 135.04 42.3947C134.982 42.3585 134.905 42.3198 134.811 42.2733C134.701 42.2233 134.587 42.1827 134.471 42.1518C134.318 42.1128 134.161 42.0946 134.004 42.0976C133.821 42.095 133.64 42.1284 133.47 42.1958C133.319 42.2594 133.183 42.3555 133.072 42.4774C132.957 42.6039 132.87 42.7536 132.817 42.9166C132.758 43.1055 132.73 43.3026 132.733 43.5005C132.729 43.7092 132.76 43.9172 132.824 44.1154C132.877 44.275 132.964 44.4207 133.08 44.5417C133.194 44.6586 133.334 44.7471 133.488 44.8C133.661 44.8571 133.842 44.885 134.024 44.8827C134.182 44.8849 134.34 44.8676 134.494 44.831C134.61 44.8021 134.723 44.765 134.834 44.72C134.928 44.6786 135.005 44.6399 135.066 44.6063C135.11 44.5802 135.158 44.5635 135.209 44.5572C135.23 44.5567 135.251 44.5611 135.27 44.5701C135.289 44.5815 135.303 44.5988 135.311 44.6192C135.321 44.654 135.328 44.6894 135.334 44.7251C135.339 44.7861 135.341 44.8474 135.339 44.9086ZM128.173 44.3376C128.176 44.2505 128.156 44.1641 128.116 44.0871C128.076 44.0101 128.016 43.945 127.943 43.8984C127.854 43.8438 127.757 43.8045 127.655 43.7821C127.505 43.7533 127.353 43.7403 127.201 43.7433H126.596V44.8905H127.333C127.454 44.8929 127.575 44.8817 127.693 44.8569C127.783 44.8346 127.87 44.798 127.949 44.7484C128.016 44.7041 128.073 44.6449 128.114 44.5753C128.155 44.5029 128.175 44.4207 128.173 44.3376ZM127.918 42.6066C127.918 42.5314 127.902 42.4572 127.869 42.3895C127.838 42.3242 127.791 42.2681 127.732 42.2268C127.659 42.1819 127.58 42.1496 127.497 42.1312C127.372 42.1045 127.246 42.0924 127.119 42.095H126.608V43.1465H127.178C127.296 43.15 127.415 43.1352 127.53 43.1026C127.609 43.079 127.684 43.0405 127.749 42.9889C127.806 42.9423 127.85 42.883 127.88 42.8158C127.904 42.7491 127.915 42.6777 127.91 42.6066H127.918ZM129.24 44.3066C129.242 44.4403 129.217 44.573 129.166 44.6967C129.117 44.8116 129.048 44.9166 128.962 45.0067C128.87 45.0985 128.765 45.176 128.651 45.2367C128.523 45.3033 128.39 45.357 128.252 45.3969C128.1 45.4401 127.945 45.4703 127.788 45.4873C127.606 45.509 127.422 45.5194 127.239 45.5183H125.901C125.825 45.5208 125.75 45.4991 125.687 45.4563C125.657 45.434 125.632 45.4042 125.617 45.3698C125.601 45.3355 125.594 45.2976 125.597 45.2599V41.7411C125.594 41.7033 125.601 41.6654 125.616 41.631C125.632 41.5966 125.656 41.5669 125.687 41.5447C125.75 41.5019 125.825 41.4802 125.901 41.4827H127.162C127.425 41.4796 127.687 41.5012 127.946 41.5473C128.134 41.5804 128.316 41.6432 128.485 41.7333C128.621 41.8093 128.737 41.9196 128.819 42.0537C128.9 42.1908 128.941 42.3486 128.936 42.5084C128.937 42.6017 128.922 42.6944 128.891 42.7822C128.86 42.8684 128.814 42.9481 128.755 43.0174C128.692 43.0921 128.617 43.1558 128.533 43.206C128.442 43.2631 128.343 43.3074 128.24 43.3377C128.375 43.3567 128.507 43.3932 128.633 43.4462C128.749 43.4942 128.856 43.5624 128.949 43.6478C129.038 43.7285 129.11 43.8259 129.161 43.9345C129.212 44.0518 129.236 44.1788 129.233 44.3066H129.24ZM122.7 45.4124C122.7 45.4228 122.698 45.4331 122.693 45.4425C122.689 45.452 122.682 45.4602 122.674 45.4666C122.649 45.4855 122.621 45.4987 122.59 45.5054C122.538 45.5177 122.485 45.5255 122.432 45.5286C122.368 45.5286 122.284 45.5286 122.177 45.5286C122.069 45.5286 121.995 45.5286 121.921 45.5286C121.869 45.5256 121.817 45.5178 121.766 45.5054C121.736 45.4994 121.709 45.4861 121.686 45.4666C121.679 45.4597 121.673 45.4514 121.668 45.4421C121.664 45.4328 121.661 45.4227 121.661 45.4124V43.286C121.661 43.2034 121.661 43.1259 121.661 43.0484C121.661 42.9708 121.661 42.8985 121.674 42.8391C121.651 42.8675 121.628 42.9037 121.6 42.9398L121.508 43.0613L121.403 43.193C121.367 43.237 121.332 43.2809 121.293 43.3222L119.545 45.4149C119.525 45.4368 119.504 45.4567 119.481 45.4744C119.455 45.4924 119.427 45.5055 119.396 45.5131C119.355 45.524 119.312 45.5301 119.269 45.5312C119.218 45.5312 119.151 45.5312 119.072 45.5312C118.993 45.5312 118.888 45.5312 118.817 45.5312C118.768 45.5282 118.719 45.5204 118.671 45.508C118.643 45.5034 118.618 45.4887 118.6 45.4666C118.587 45.4498 118.579 45.4288 118.58 45.4072V41.5964C118.579 41.5859 118.582 41.5756 118.586 41.5662C118.59 41.5568 118.597 41.5485 118.605 41.5421C118.63 41.5227 118.659 41.5094 118.689 41.5034C118.741 41.4914 118.794 41.4837 118.848 41.4801C118.912 41.4801 118.997 41.4801 119.103 41.4801C119.208 41.4801 119.294 41.4801 119.358 41.4801C119.411 41.4832 119.463 41.491 119.514 41.5034C119.544 41.5093 119.572 41.5226 119.596 41.5421C119.603 41.5491 119.609 41.5575 119.613 41.5669C119.617 41.5762 119.619 41.5862 119.619 41.5964V43.7356C119.619 43.8028 119.619 43.8725 119.619 43.9475C119.619 44.0224 119.619 44.0947 119.606 44.1645L119.774 43.9397C119.843 43.8544 119.912 43.7692 119.986 43.6813L121.737 41.5886C121.754 41.5679 121.774 41.5497 121.796 41.5344C121.821 41.5169 121.849 41.5038 121.878 41.4956C121.921 41.4841 121.964 41.4763 122.008 41.4724H122.207C122.307 41.4724 122.386 41.4724 122.447 41.4724C122.496 41.4757 122.545 41.4835 122.593 41.4956C122.621 41.5021 122.647 41.5154 122.669 41.5344C122.682 41.5504 122.689 41.5704 122.69 41.5912L122.7 45.4124ZM117.507 45.4124C117.508 45.4228 117.505 45.4331 117.501 45.4425C117.497 45.452 117.49 45.4602 117.482 45.4666C117.457 45.4855 117.428 45.4987 117.398 45.5054C117.346 45.5177 117.293 45.5255 117.239 45.5286C117.173 45.5286 117.088 45.5286 116.984 45.5286C116.884 45.5286 116.803 45.5286 116.729 45.5286C116.676 45.5257 116.624 45.518 116.573 45.5054C116.544 45.5001 116.516 45.4867 116.494 45.4666C116.486 45.4602 116.479 45.452 116.475 45.4425C116.47 45.4331 116.468 45.4228 116.468 45.4124V43.286C116.468 43.2034 116.468 43.1259 116.468 43.0484C116.468 42.9708 116.468 42.8985 116.468 42.8391C116.448 42.8675 116.425 42.9037 116.394 42.9398L116.302 43.0613L116.2 43.193L116.091 43.3222L114.342 45.4149C114.322 45.4368 114.301 45.4567 114.278 45.4744C114.252 45.4923 114.222 45.5054 114.191 45.5131C114.15 45.5242 114.107 45.5303 114.064 45.5312C114.015 45.5312 113.949 45.5312 113.87 45.5312C113.79 45.5312 113.686 45.5312 113.614 45.5312C113.565 45.5285 113.516 45.5207 113.469 45.508C113.441 45.5034 113.415 45.4887 113.397 45.4666C113.39 45.4586 113.385 45.4492 113.381 45.439C113.378 45.4288 113.376 45.418 113.377 45.4072V41.5964C113.377 41.5859 113.379 41.5756 113.383 41.5662C113.388 41.5568 113.394 41.5485 113.402 41.5421C113.427 41.5222 113.456 41.5089 113.487 41.5034C113.539 41.491 113.592 41.4832 113.645 41.4801C113.709 41.4801 113.79 41.4801 113.9 41.4801C114.01 41.4801 114.084 41.4801 114.155 41.4801C114.208 41.4832 114.26 41.491 114.311 41.5034C114.341 41.5093 114.369 41.5226 114.393 41.5421C114.4 41.5491 114.406 41.5575 114.41 41.5669C114.414 41.5762 114.416 41.5862 114.416 41.5964V43.7356C114.416 43.8028 114.416 43.8725 114.416 43.9475C114.416 44.0224 114.416 44.0947 114.416 44.1645L114.584 43.9397C114.653 43.8544 114.722 43.7692 114.794 43.6813L116.545 41.5886C116.563 41.5685 116.582 41.5504 116.604 41.5344C116.63 41.5169 116.658 41.5039 116.688 41.4956C116.731 41.4841 116.774 41.4763 116.818 41.4724H117.017C117.114 41.4724 117.196 41.4724 117.257 41.4724C117.306 41.4757 117.355 41.4835 117.403 41.4956C117.43 41.5014 117.456 41.5148 117.477 41.5344C117.484 41.5418 117.49 41.5507 117.494 41.5605C117.498 41.5702 117.5 41.5807 117.5 41.5912L117.507 45.4124ZM112.69 46.4639C112.691 46.484 112.683 46.5034 112.67 46.5181C112.65 46.5354 112.626 46.5478 112.601 46.5543C112.556 46.5646 112.511 46.5715 112.466 46.575C112.407 46.575 112.335 46.575 112.246 46.575C112.157 46.575 112.088 46.575 112.029 46.575C111.983 46.5712 111.938 46.5643 111.894 46.5543C111.867 46.5482 111.841 46.5359 111.82 46.5181C111.812 46.5111 111.807 46.5027 111.803 46.4934C111.799 46.4841 111.797 46.474 111.797 46.4639V45.5183H108.478C108.401 45.5219 108.324 45.4991 108.261 45.4537C108.234 45.4294 108.213 45.3994 108.2 45.3659C108.186 45.3324 108.18 45.2962 108.182 45.2599V41.5964C108.182 41.5859 108.184 41.5756 108.188 41.5662C108.193 41.5568 108.199 41.5485 108.207 41.5421C108.232 41.5232 108.261 41.51 108.292 41.5034C108.343 41.491 108.395 41.4832 108.447 41.4801C108.514 41.4801 108.598 41.4801 108.703 41.4801C108.807 41.4801 108.886 41.4801 108.958 41.4801C109.01 41.4834 109.062 41.4912 109.114 41.5034C109.143 41.5086 109.17 41.522 109.193 41.5421C109.201 41.5485 109.207 41.5568 109.212 41.5662C109.216 41.5756 109.218 41.5859 109.218 41.5964V44.8491H111.049V41.5964C111.048 41.5859 111.051 41.5756 111.055 41.5662C111.06 41.5568 111.066 41.5485 111.074 41.5421C111.099 41.5232 111.128 41.51 111.158 41.5034C111.21 41.491 111.262 41.4832 111.314 41.4801C111.381 41.4801 111.462 41.4801 111.569 41.4801C111.677 41.4801 111.753 41.4801 111.825 41.4801C111.876 41.4834 111.928 41.4911 111.978 41.5034C112.008 41.5093 112.036 41.5226 112.06 41.5421C112.067 41.5491 112.073 41.5575 112.077 41.5669C112.081 41.5762 112.083 41.5862 112.083 41.5964V44.8491H112.527C112.55 44.846 112.574 44.8476 112.597 44.8538C112.62 44.86 112.641 44.8707 112.66 44.8853C112.674 44.9035 112.686 44.9245 112.692 44.9472C112.699 44.9698 112.701 44.9936 112.698 45.0171L112.69 46.4639ZM105.157 42.25L104.457 43.9655H105.869L105.157 42.25ZM107.459 45.2134C107.485 45.2707 107.504 45.3304 107.518 45.3917C107.523 45.4093 107.523 45.428 107.517 45.4455C107.512 45.4629 107.502 45.4784 107.487 45.4899C107.441 45.5181 107.388 45.5325 107.334 45.5312C107.263 45.5312 107.163 45.5312 107.036 45.5312C106.903 45.5312 106.801 45.5312 106.727 45.5312C106.669 45.5309 106.612 45.5248 106.556 45.5131C106.526 45.5072 106.499 45.4938 106.477 45.4744C106.459 45.4565 106.445 45.4343 106.438 45.4098L106.106 44.5985H104.207L103.891 45.3736C103.882 45.4004 103.868 45.4251 103.85 45.4459C103.828 45.47 103.799 45.4863 103.768 45.4925C103.717 45.5078 103.663 45.5156 103.61 45.5157C103.541 45.5157 103.449 45.5157 103.339 45.5157C103.246 45.5207 103.152 45.5207 103.058 45.5157C103.008 45.5165 102.959 45.5011 102.918 45.4718C102.905 45.4589 102.896 45.4428 102.891 45.4252C102.886 45.4075 102.885 45.3888 102.89 45.371C102.903 45.3105 102.923 45.2516 102.949 45.1953L104.501 41.6145C104.514 41.584 104.532 41.556 104.554 41.5318C104.581 41.5059 104.615 41.4881 104.651 41.4801C104.714 41.4675 104.778 41.4606 104.843 41.4594C104.922 41.4594 105.029 41.4594 105.162 41.4594C105.295 41.4594 105.435 41.4594 105.527 41.4594C105.598 41.4603 105.669 41.4673 105.739 41.4801C105.779 41.4872 105.817 41.505 105.849 41.5318C105.873 41.5586 105.891 41.5903 105.902 41.6248L107.459 45.2134ZM101.547 44.3402C101.549 44.2504 101.529 44.1616 101.488 44.0818C101.446 44.0074 101.388 43.9438 101.317 43.8958C101.228 43.8412 101.131 43.8019 101.029 43.7795C100.879 43.7507 100.727 43.7377 100.574 43.7408H99.9693V44.8879H100.707C100.828 44.8902 100.949 44.879 101.067 44.8543C101.157 44.8315 101.243 44.7949 101.322 44.7458C101.39 44.7016 101.447 44.6424 101.488 44.5727C101.528 44.501 101.549 44.4199 101.547 44.3376V44.3402ZM101.292 42.6091C101.292 42.534 101.275 42.4598 101.243 42.3921C101.212 42.3267 101.164 42.2707 101.105 42.2294C101.033 42.1845 100.953 42.1522 100.87 42.1338C100.745 42.107 100.618 42.0949 100.49 42.0976H99.9796V43.1465H100.549C100.668 43.1498 100.787 43.135 100.901 43.1026C100.981 43.079 101.055 43.0405 101.121 42.9889C101.175 42.9425 101.219 42.8844 101.249 42.8187C101.279 42.753 101.295 42.6815 101.294 42.6091H101.292ZM102.614 44.3092C102.616 44.4432 102.59 44.5762 102.538 44.6993C102.49 44.8145 102.422 44.9197 102.336 45.0093C102.243 45.1006 102.138 45.178 102.024 45.2393C101.897 45.3059 101.764 45.3595 101.626 45.3994C101.474 45.4427 101.319 45.4729 101.162 45.4899C100.979 45.5116 100.796 45.522 100.613 45.5209H99.275C99.1988 45.5233 99.1239 45.5017 99.0605 45.4589C99.0303 45.4365 99.0063 45.4068 98.9907 45.3724C98.975 45.3381 98.9683 45.3002 98.9712 45.2625V41.7411C98.9681 41.7033 98.9747 41.6654 98.9903 41.631C99.006 41.5966 99.0302 41.5669 99.0605 41.5447C99.1239 41.5019 99.1988 41.4802 99.275 41.4827H100.536C100.798 41.4795 101.059 41.5011 101.317 41.5473C101.506 41.58 101.689 41.6428 101.858 41.7333C101.995 41.8093 102.11 41.9196 102.193 42.0537C102.274 42.1908 102.315 42.3486 102.31 42.5084C102.311 42.6017 102.296 42.6944 102.264 42.7822C102.234 42.8684 102.188 42.9481 102.129 43.0174C102.066 43.0921 101.991 43.1558 101.907 43.206C101.815 43.2636 101.715 43.3079 101.611 43.3377C101.747 43.3564 101.88 43.3928 102.007 43.4462C102.123 43.4942 102.23 43.5624 102.323 43.6478C102.411 43.7285 102.483 43.8259 102.535 43.9345C102.585 44.0518 102.61 44.1788 102.606 44.3066L102.614 44.3092ZM97.0336 43.4979C97.0355 43.3032 97.0149 43.109 96.9723 42.9192C96.9359 42.7567 96.8634 42.6047 96.7604 42.4748C96.6543 42.346 96.5171 42.2472 96.3622 42.188C96.1627 42.115 95.9513 42.0809 95.7393 42.0873C95.5252 42.0795 95.3119 42.1182 95.1138 42.2009C94.9551 42.2674 94.8143 42.371 94.7028 42.5032C94.5989 42.6336 94.524 42.7852 94.4833 42.9476C94.4409 43.1235 94.4195 43.3039 94.4195 43.485C94.4179 43.6849 94.4394 43.8843 94.4833 44.0792C94.5199 44.2435 94.5913 44.3978 94.6926 44.5313C94.7979 44.6592 94.9343 44.7572 95.0883 44.8155C95.2892 44.8863 95.5011 44.9195 95.7137 44.9137C95.9287 44.9215 96.1428 44.8827 96.3418 44.8C96.5004 44.7336 96.6406 44.6289 96.7502 44.4952C96.8552 44.3636 96.9302 44.21 96.9697 44.0456C97.0113 43.8653 97.0302 43.6804 97.0259 43.4953L97.0336 43.4979ZM98.1083 43.4566C98.1136 43.7627 98.0608 44.0671 97.9526 44.3531C97.8547 44.6116 97.6961 44.8421 97.4905 45.0248C97.2675 45.2184 97.0065 45.3619 96.7247 45.4459C96.385 45.5474 96.0321 45.5962 95.678 45.5906C95.3336 45.5965 94.9901 45.5547 94.6569 45.4666C94.3887 45.397 94.1387 45.2692 93.9242 45.092C93.7269 44.9187 93.5766 44.6973 93.4877 44.4487C93.3857 44.1523 93.3364 43.8401 93.3422 43.5263C93.3385 43.2262 93.3913 42.928 93.4979 42.6479C93.5979 42.3927 93.7562 42.1652 93.9599 41.9839C94.183 41.7905 94.444 41.6469 94.7258 41.5628C95.0676 41.459 95.4233 41.4093 95.7801 41.4155C96.1243 41.4099 96.4677 41.4507 96.8013 41.5369C97.0689 41.606 97.3182 41.7339 97.5314 41.9116C97.7299 42.0823 97.8826 42.3009 97.9756 42.5471C98.0722 42.839 98.1146 43.1465 98.1007 43.454L98.1083 43.4566ZM92.4921 45.4072C92.4912 45.4288 92.4821 45.4492 92.4665 45.464C92.4418 45.4839 92.413 45.498 92.3823 45.5054C92.3309 45.5165 92.2789 45.5243 92.2266 45.5286C92.1415 45.5337 92.0563 45.5337 91.9713 45.5286C91.8862 45.5335 91.801 45.5335 91.716 45.5286C91.6636 45.5243 91.6116 45.5165 91.5603 45.5054C91.5303 45.4981 91.5023 45.484 91.4786 45.464C91.4704 45.4571 91.4639 45.4484 91.4594 45.4385C91.455 45.4287 91.4528 45.418 91.453 45.4072V43.7769H89.5665V45.4072C89.5657 45.4288 89.5565 45.4492 89.541 45.464C89.5183 45.4855 89.4899 45.4999 89.4593 45.5054C89.4087 45.5163 89.3576 45.5241 89.3061 45.5286C89.2211 45.5336 89.1358 45.5336 89.0508 45.5286C88.9658 45.5335 88.8806 45.5335 88.7955 45.5286C88.7432 45.5243 88.6912 45.5165 88.6398 45.5054C88.6195 45.4971 88.6006 45.4858 88.5837 45.4718C88.5755 45.4648 88.5689 45.4561 88.5645 45.4463C88.5601 45.4365 88.5579 45.4257 88.5581 45.4149V41.5964C88.5579 41.5856 88.5601 41.5749 88.5645 41.565C88.5689 41.5552 88.5755 41.5465 88.5837 41.5395C88.6084 41.5196 88.6371 41.5055 88.6679 41.4982C88.719 41.4858 88.7711 41.478 88.8236 41.4749C88.9087 41.47 88.9939 41.47 89.0789 41.4749C89.1639 41.47 89.2492 41.47 89.3342 41.4749C89.3858 41.4782 89.4371 41.486 89.4874 41.4982C89.518 41.5037 89.5463 41.5181 89.569 41.5395C89.5846 41.5544 89.5937 41.5748 89.5946 41.5964V43.0794H91.4811V41.5964C91.4809 41.5856 91.4831 41.5749 91.4875 41.565C91.4919 41.5552 91.4985 41.5465 91.5067 41.5395C91.5304 41.5196 91.5584 41.5055 91.5884 41.4982C91.6395 41.4858 91.6916 41.478 91.7441 41.4749C91.8291 41.4701 91.9143 41.4701 91.9994 41.4749C92.0844 41.4698 92.1696 41.4698 92.2546 41.4749C92.3071 41.478 92.3592 41.4858 92.4104 41.4982C92.4411 41.5055 92.4699 41.5196 92.4946 41.5395C92.5101 41.5544 92.5193 41.5748 92.5201 41.5964L92.4921 45.4072ZM87.4655 45.4072C87.4657 45.418 87.4635 45.4287 87.4591 45.4385C87.4547 45.4484 87.4482 45.4571 87.44 45.464C87.4152 45.4839 87.3865 45.498 87.3557 45.5054C87.3044 45.5165 87.2524 45.5243 87.2 45.5286C87.1192 45.5332 87.0383 45.5332 86.9575 45.5286C86.8725 45.5334 86.7872 45.5334 86.7022 45.5286C86.6499 45.5243 86.5978 45.5165 86.5465 45.5054C86.5165 45.4981 86.4885 45.484 86.4648 45.464C86.4575 45.4566 86.4517 45.4477 86.4477 45.4379C86.4438 45.4282 86.4418 45.4177 86.4418 45.4072V43.7769H84.5527V45.4072C84.5529 45.418 84.5507 45.4287 84.5463 45.4385C84.5419 45.4484 84.5354 45.4571 84.5272 45.464C84.5052 45.4851 84.4777 45.4994 84.448 45.5054C84.3966 45.5163 84.3446 45.5241 84.2923 45.5286C84.2073 45.5336 84.1221 45.5336 84.037 45.5286C83.952 45.5334 83.8668 45.5334 83.7818 45.5286C83.7294 45.5243 83.6774 45.5165 83.626 45.5054C83.5953 45.498 83.5665 45.4839 83.5418 45.464C83.5336 45.4571 83.5271 45.4484 83.5227 45.4385C83.5182 45.4287 83.516 45.418 83.5163 45.4072V41.5964C83.516 41.5856 83.5182 41.5749 83.5227 41.565C83.5271 41.5552 83.5336 41.5465 83.5418 41.5395C83.5665 41.5196 83.5953 41.5055 83.626 41.4982C83.6772 41.4858 83.7293 41.478 83.7818 41.4749C83.8668 41.4701 83.952 41.4701 84.037 41.4749C84.1221 41.47 84.2073 41.47 84.2923 41.4749C84.3448 41.4782 84.3969 41.486 84.448 41.4982C84.4777 41.5042 84.5052 41.5185 84.5272 41.5395C84.5354 41.5465 84.5419 41.5552 84.5463 41.565C84.5507 41.5749 84.5529 41.5856 84.5527 41.5964V43.0794H86.4418V41.5964C86.4418 41.5858 86.4438 41.5754 86.4477 41.5656C86.4517 41.5559 86.4575 41.547 86.4648 41.5395C86.4885 41.5196 86.5165 41.5055 86.5465 41.4982C86.5976 41.4858 86.6497 41.478 86.7022 41.4749C86.7872 41.4702 86.8725 41.4702 86.9575 41.4749C87.0383 41.4703 87.1192 41.4703 87.2 41.4749C87.2525 41.478 87.3046 41.4858 87.3557 41.4982C87.3865 41.5055 87.4152 41.5196 87.44 41.5395C87.4482 41.5465 87.4547 41.5552 87.4591 41.565C87.4635 41.5749 87.4657 41.5856 87.4655 41.5964V45.4072ZM82.439 45.4072C82.4392 45.4176 82.437 45.428 82.4325 45.4374C82.4281 45.4468 82.4216 45.455 82.4134 45.4615C82.3894 45.4804 82.3615 45.4936 82.3317 45.5002C82.2797 45.5124 82.2268 45.5201 82.1735 45.5235C82.1071 45.5235 82.0229 45.5235 81.9182 45.5235C81.8135 45.5235 81.7369 45.5235 81.6629 45.5235C81.6104 45.5204 81.5583 45.5126 81.5072 45.5002C81.4816 45.4962 81.4572 45.4865 81.4357 45.4718C81.4284 45.4648 81.4227 45.4564 81.4187 45.447C81.4148 45.4377 81.4127 45.4277 81.4127 45.4175V43.2912C81.4127 43.2085 81.4127 43.131 81.4127 43.0535C81.4127 42.976 81.4127 42.9037 81.4255 42.8443L81.3515 42.945L81.2595 43.0664L81.1549 43.1982L81.0477 43.3274L79.299 45.4201L79.2351 45.4795C79.2084 45.4969 79.1791 45.51 79.1483 45.5183C79.1066 45.5292 79.0638 45.5353 79.0207 45.5364C78.9696 45.5364 78.9033 45.5364 78.8241 45.5364C78.745 45.5364 78.6403 45.5364 78.5688 45.5364C78.5197 45.5332 78.471 45.5254 78.4233 45.5131C78.3956 45.5079 78.3704 45.4933 78.3519 45.4718C78.3384 45.455 78.3312 45.434 78.3314 45.4124V41.5964C78.3312 41.5859 78.3334 41.5756 78.3379 41.5662C78.3423 41.5568 78.3488 41.5485 78.357 41.5421C78.382 41.5232 78.4107 41.51 78.4412 41.5034C78.4933 41.4914 78.5462 41.4837 78.5995 41.4801C78.6642 41.4801 78.7493 41.4801 78.8548 41.4801C78.9543 41.4801 79.0386 41.4801 79.1101 41.4801C79.1617 41.4834 79.2129 41.4911 79.2632 41.5034C79.2935 41.5081 79.3219 41.5216 79.3449 41.5421C79.3525 41.549 79.3587 41.5573 79.3631 41.5666C79.3675 41.576 79.37 41.5861 79.3704 41.5964V43.7356C79.3704 43.8028 79.3704 43.8725 79.3704 43.9475C79.3704 44.0224 79.3704 44.0947 79.3577 44.1645C79.4036 44.1025 79.4598 44.0275 79.5287 43.9397C79.5976 43.8519 79.6666 43.7692 79.7381 43.6813L81.4893 41.5886C81.5064 41.5679 81.5261 41.5497 81.548 41.5344C81.5729 41.5169 81.6005 41.5038 81.6297 41.4956C81.6724 41.4841 81.7159 41.4763 81.7599 41.4724H81.959C82.0586 41.4724 82.1377 41.4724 82.199 41.4724C82.2481 41.4755 82.2968 41.4833 82.3445 41.4956C82.3728 41.5021 82.399 41.5154 82.4211 41.5344C82.4281 41.542 82.4335 41.5509 82.437 41.5607C82.4405 41.5704 82.442 41.5808 82.4415 41.5912L82.439 45.4072Z" fill="white"/>
<path d="M174.931 45.4118C174.931 45.4221 174.928 45.4322 174.924 45.4415C174.919 45.4509 174.913 45.4592 174.906 45.4661C174.881 45.485 174.852 45.4982 174.821 45.5048C174.769 45.5172 174.716 45.525 174.663 45.5281C174.597 45.5281 174.515 45.5281 174.408 45.5281C174.301 45.5281 174.229 45.5281 174.152 45.5281C174.1 45.5252 174.048 45.5174 173.997 45.5048C173.967 45.4989 173.939 45.4856 173.915 45.4661C173.908 45.4591 173.902 45.4506 173.898 45.4413C173.894 45.432 173.892 45.422 173.892 45.4118V43.2855C173.892 43.2028 173.892 43.1253 173.892 43.0478C173.892 42.9703 173.892 42.898 173.892 42.8385C173.872 42.867 173.849 42.9031 173.818 42.9393L173.726 43.0607L173.624 43.1925L173.514 43.3217L171.766 45.4144C171.746 45.4356 171.724 45.4554 171.702 45.4738C171.675 45.4912 171.646 45.5043 171.615 45.5126C171.573 45.5237 171.53 45.5297 171.487 45.5307C171.439 45.5307 171.37 45.5307 171.291 45.5307C171.212 45.5307 171.109 45.5307 171.035 45.5307C170.985 45.5277 170.936 45.5199 170.887 45.5074C170.86 45.5022 170.834 45.4876 170.816 45.4661C170.802 45.4493 170.795 45.4282 170.795 45.4066V41.5958C170.796 41.5855 170.798 41.5754 170.803 41.5661C170.807 41.5568 170.813 41.5484 170.821 41.5416C170.847 41.5222 170.876 41.5089 170.908 41.5028C170.96 41.4904 171.013 41.4827 171.066 41.4796C171.13 41.4796 171.212 41.4796 171.321 41.4796C171.431 41.4796 171.505 41.4796 171.577 41.4796C171.629 41.4826 171.681 41.4904 171.732 41.5028C171.762 41.5088 171.79 41.5221 171.814 41.5416C171.821 41.5486 171.827 41.557 171.831 41.5663C171.835 41.5756 171.837 41.5857 171.837 41.5958V43.735C171.837 43.8022 171.837 43.872 171.837 43.9469C171.837 44.0218 171.837 44.0942 171.837 44.1639C171.883 44.1019 171.937 44.027 172.006 43.9392C172.074 43.8513 172.143 43.7686 172.215 43.6808L173.966 41.5881C173.984 41.568 174.003 41.5498 174.025 41.5338C174.05 41.5158 174.079 41.5027 174.109 41.4951C174.152 41.4832 174.195 41.4755 174.239 41.4718H174.438C174.535 41.4718 174.615 41.4718 174.676 41.4718C174.726 41.4752 174.775 41.483 174.824 41.4951C174.851 41.5014 174.877 41.5147 174.898 41.5338C174.905 41.5413 174.911 41.5502 174.915 41.5599C174.919 41.5697 174.921 41.5801 174.921 41.5907L174.931 45.4118ZM169.736 45.4118C169.736 45.4222 169.734 45.4326 169.73 45.442C169.725 45.4514 169.719 45.4596 169.711 45.4661C169.687 45.4856 169.659 45.4989 169.629 45.5048C169.577 45.5172 169.524 45.525 169.471 45.5281C169.404 45.5281 169.322 45.5281 169.215 45.5281C169.108 45.5281 169.034 45.5281 168.96 45.5281C168.908 45.5252 168.857 45.5174 168.807 45.5048C168.783 45.4983 168.762 45.4868 168.743 45.4712C168.736 45.4642 168.73 45.4558 168.726 45.4465C168.722 45.4372 168.72 45.4271 168.72 45.417V43.2907C168.72 43.208 168.72 43.1305 168.72 43.053C168.72 42.9755 168.72 42.9031 168.733 42.8437L168.659 42.9445L168.567 43.0659L168.462 43.1977L168.355 43.3268L166.606 45.4196C166.586 45.4407 166.565 45.4606 166.542 45.479C166.516 45.4964 166.486 45.5095 166.456 45.5177C166.414 45.5286 166.371 45.5347 166.328 45.5358C166.277 45.5358 166.211 45.5358 166.131 45.5358C166.052 45.5358 165.948 45.5358 165.876 45.5358C165.827 45.5327 165.778 45.5249 165.731 45.5126C165.703 45.5073 165.678 45.4928 165.659 45.4712C165.646 45.4544 165.639 45.4334 165.639 45.4118V41.5958C165.639 41.5854 165.641 41.5751 165.645 41.5656C165.65 41.5562 165.656 41.548 165.664 41.5416C165.689 41.5227 165.718 41.5094 165.748 41.5028C165.801 41.4909 165.853 41.4831 165.907 41.4796C165.971 41.4796 166.055 41.4796 166.162 41.4796C166.269 41.4796 166.346 41.4796 166.417 41.4796C166.47 41.4828 166.522 41.4906 166.573 41.5028C166.602 41.508 166.63 41.5215 166.652 41.5416C166.66 41.548 166.667 41.5562 166.671 41.5656C166.676 41.5751 166.678 41.5854 166.678 41.5958V43.735C166.678 43.8022 166.678 43.872 166.678 43.9469C166.678 44.0218 166.678 44.0942 166.665 44.1639C166.708 44.1019 166.764 44.027 166.833 43.9392C166.9 43.8539 166.971 43.7686 167.043 43.6808L168.794 41.5881C168.812 41.568 168.831 41.5498 168.853 41.5338C168.878 41.5164 168.905 41.5033 168.934 41.4951C168.977 41.4835 169.021 41.4757 169.065 41.4718H169.266C169.363 41.4718 169.442 41.4718 169.504 41.4718C169.553 41.475 169.602 41.4827 169.649 41.4951C169.677 41.5015 169.704 41.5148 169.726 41.5338C169.733 41.5414 169.738 41.5504 169.742 41.5601C169.745 41.5699 169.747 41.5803 169.746 41.5907L169.736 45.4118ZM164.544 45.4118C164.544 45.4226 164.542 45.4333 164.537 45.4432C164.533 45.453 164.526 45.4617 164.518 45.4686C164.494 45.4896 164.465 45.5038 164.434 45.51C164.383 45.5209 164.332 45.5287 164.281 45.5332C164.196 45.5382 164.11 45.5382 164.025 45.5332C163.94 45.538 163.855 45.538 163.77 45.5332C163.718 45.5289 163.666 45.5211 163.614 45.51C163.585 45.5021 163.557 45.488 163.533 45.4686C163.525 45.4612 163.519 45.4523 163.516 45.4425C163.512 45.4328 163.51 45.4223 163.51 45.4118V43.7816H161.621V45.4118C161.621 45.4223 161.619 45.4328 161.615 45.4425C161.611 45.4523 161.605 45.4612 161.598 45.4686C161.574 45.4891 161.546 45.5033 161.516 45.51C161.465 45.5211 161.413 45.5289 161.36 45.5332C161.196 45.547 161.031 45.547 160.867 45.5332C160.814 45.5288 160.761 45.5211 160.709 45.51C160.678 45.5027 160.65 45.4885 160.625 45.4686C160.618 45.4612 160.612 45.4523 160.608 45.4425C160.604 45.4328 160.602 45.4223 160.602 45.4118V41.5958C160.602 41.5853 160.604 41.5748 160.608 41.5651C160.612 41.5553 160.618 41.5465 160.625 41.539C160.65 41.5191 160.678 41.505 160.709 41.4976C160.761 41.4853 160.814 41.4775 160.867 41.4744C161.031 41.4606 161.196 41.4606 161.36 41.4744C161.413 41.4775 161.465 41.4852 161.516 41.4976C161.546 41.5043 161.574 41.5186 161.598 41.539C161.605 41.5465 161.611 41.5553 161.615 41.5651C161.619 41.5748 161.621 41.5853 161.621 41.5958V43.0788H163.51V41.5958C163.51 41.5853 163.512 41.5748 163.516 41.5651C163.519 41.5553 163.525 41.5465 163.533 41.539C163.557 41.5196 163.585 41.5055 163.614 41.4976C163.665 41.4852 163.718 41.4775 163.77 41.4744C163.855 41.4696 163.94 41.4696 164.025 41.4744C164.11 41.4694 164.196 41.4694 164.281 41.4744C164.332 41.4776 164.383 41.4854 164.434 41.4976C164.465 41.5038 164.494 41.5181 164.518 41.539C164.526 41.5459 164.533 41.5546 164.537 41.5645C164.542 41.5743 164.544 41.585 164.544 41.5958V45.4118ZM157.6 42.2572L156.898 43.9727H158.312L157.6 42.2572ZM159.897 45.218C159.923 45.2753 159.942 45.3351 159.956 45.3963C159.961 45.4139 159.961 45.4326 159.955 45.4501C159.95 45.4675 159.94 45.483 159.925 45.4945C159.879 45.5227 159.826 45.5371 159.772 45.5358C159.701 45.5358 159.601 45.5358 159.474 45.5358C159.341 45.5358 159.239 45.5358 159.165 45.5358C159.108 45.5357 159.052 45.5296 158.996 45.5177C158.966 45.5118 158.938 45.4985 158.915 45.479C158.898 45.4598 158.885 45.4379 158.876 45.4144L158.544 44.6031H156.648L156.328 45.3782C156.32 45.405 156.306 45.4297 156.288 45.4506C156.266 45.4746 156.237 45.4909 156.206 45.4971C156.155 45.5124 156.101 45.5202 156.048 45.5203C155.979 45.5203 155.889 45.5203 155.777 45.5203C155.684 45.5252 155.59 45.5252 155.496 45.5203C155.447 45.5211 155.399 45.5057 155.358 45.4764C155.345 45.4638 155.335 45.4478 155.33 45.43C155.325 45.4122 155.325 45.3934 155.33 45.3756C155.344 45.3151 155.363 45.2562 155.389 45.2L156.939 41.6191C156.952 41.5886 156.97 41.5606 156.992 41.5364C157.02 41.51 157.054 41.4921 157.092 41.4847C157.154 41.4721 157.217 41.4652 157.281 41.4641C157.36 41.4641 157.467 41.4641 157.6 41.4641C157.733 41.4641 157.876 41.4641 157.965 41.4641C158.036 41.4649 158.107 41.4718 158.177 41.4847C158.217 41.4918 158.255 41.5097 158.287 41.5364C158.31 41.5639 158.329 41.5954 158.343 41.6294L159.897 45.218ZM153.426 42.1461H152.254C152.206 42.4613 152.16 42.7404 152.114 42.9781C152.068 43.2157 152.022 43.4276 151.976 43.6084C151.93 43.7893 151.884 43.9443 151.838 44.0761C151.796 44.1914 151.749 44.3044 151.695 44.4145C151.652 44.5048 151.602 44.5913 151.544 44.6729C151.494 44.7377 151.44 44.7998 151.384 44.8589H153.426V42.1461ZM155.065 46.4633C155.065 46.4833 155.057 46.5026 155.044 46.5176C155.025 46.5354 155.001 46.5479 154.975 46.5538C154.931 46.5637 154.886 46.5706 154.84 46.5744C154.784 46.5744 154.71 46.5744 154.618 46.5744C154.526 46.5744 154.455 46.5744 154.404 46.5744C154.358 46.5704 154.313 46.5635 154.268 46.5538C154.241 46.5471 154.216 46.5347 154.194 46.5176C154.187 46.5105 154.182 46.502 154.178 46.4926C154.175 46.4833 154.173 46.4733 154.174 46.4633V45.5177H150.827V46.4633C150.827 46.4735 150.825 46.4835 150.821 46.4929C150.817 46.5022 150.811 46.5106 150.804 46.5176C150.783 46.5353 150.757 46.5477 150.73 46.5538C150.685 46.5638 150.639 46.5707 150.592 46.5744C150.536 46.5744 150.462 46.5744 150.375 46.5744C150.288 46.5744 150.214 46.5744 150.156 46.5744C150.109 46.5703 150.063 46.5634 150.018 46.5538C149.992 46.5472 149.967 46.5348 149.946 46.5176C149.933 46.5026 149.926 46.4833 149.926 46.4633V45.0139C149.921 44.9907 149.922 44.9665 149.929 44.9439C149.937 44.9212 149.95 44.9008 149.967 44.8848C150.01 44.856 150.061 44.8424 150.112 44.846H150.347C150.411 44.7762 150.467 44.7039 150.523 44.629C150.584 44.5471 150.639 44.4607 150.687 44.3706C150.745 44.2507 150.796 44.1273 150.84 44.0012C150.899 43.8319 150.948 43.6594 150.988 43.4844C151.039 43.2777 151.088 43.0349 151.139 42.7533C151.19 42.4717 151.243 42.141 151.297 41.7612C151.304 41.6853 151.336 41.6138 151.386 41.5571C151.443 41.5105 151.515 41.4874 151.588 41.4925H154.161C154.238 41.4885 154.314 41.5113 154.376 41.5571C154.403 41.5811 154.424 41.611 154.437 41.6446C154.451 41.6782 154.457 41.7146 154.455 41.7508V44.8512H154.881C154.935 44.8463 154.989 44.862 155.032 44.8951C155.06 44.9318 155.075 44.9776 155.073 45.0243L155.065 46.4633ZM149.341 45.4118C149.341 45.4221 149.338 45.4322 149.334 45.4415C149.33 45.4509 149.323 45.4592 149.316 45.4661C149.291 45.485 149.262 45.4982 149.232 45.5048C149.18 45.5172 149.127 45.525 149.073 45.5281C149.007 45.5281 148.925 45.5281 148.818 45.5281C148.711 45.5281 148.639 45.5281 148.563 45.5281C148.51 45.5252 148.458 45.5174 148.407 45.5048C148.378 45.4996 148.35 45.4862 148.328 45.4661C148.32 45.4596 148.313 45.4514 148.309 45.442C148.304 45.4326 148.302 45.4222 148.302 45.4118V43.2855C148.302 43.2028 148.302 43.1253 148.302 43.0478C148.302 42.9703 148.302 42.898 148.302 42.8385C148.282 42.867 148.259 42.9031 148.228 42.9393L148.136 43.0607L148.034 43.1925L147.925 43.3217L146.176 45.4144C146.156 45.4356 146.135 45.4554 146.112 45.4738C146.085 45.4912 146.056 45.5043 146.025 45.5126C145.984 45.5237 145.941 45.5297 145.898 45.5307C145.849 45.5307 145.783 45.5307 145.701 45.5307C145.619 45.5307 145.52 45.5307 145.458 45.5307C145.409 45.5277 145.359 45.5199 145.31 45.5074C145.29 45.5003 145.271 45.4878 145.257 45.4712C145.243 45.4544 145.236 45.4334 145.236 45.4118V41.5958C145.237 41.5855 145.239 41.5754 145.244 41.5661C145.248 41.5568 145.254 41.5484 145.262 41.5416C145.288 41.5222 145.317 41.5089 145.349 41.5028C145.401 41.4904 145.454 41.4827 145.507 41.4796C145.571 41.4796 145.653 41.4796 145.75 41.4796C145.847 41.4796 145.933 41.4796 146.005 41.4796C146.057 41.4826 146.109 41.4904 146.161 41.5028C146.19 41.5088 146.219 41.5221 146.242 41.5416C146.249 41.5486 146.255 41.557 146.259 41.5663C146.263 41.5756 146.265 41.5857 146.265 41.5958V43.735C146.265 43.8022 146.265 43.872 146.265 43.9469C146.265 44.0218 146.265 44.0942 146.265 44.1639C146.308 44.1019 146.364 44.027 146.434 43.9392C146.5 43.8539 146.572 43.7686 146.643 43.6808L148.394 41.5881C148.412 41.568 148.432 41.5498 148.453 41.5338C148.478 41.5158 148.507 41.5027 148.537 41.4951C148.58 41.483 148.623 41.4752 148.667 41.4718H148.867C148.964 41.4718 149.043 41.4718 149.104 41.4718C149.154 41.4752 149.203 41.483 149.252 41.4951C149.28 41.5008 149.305 41.5142 149.326 41.5338C149.333 41.5413 149.339 41.5502 149.343 41.5599C149.347 41.5697 149.349 41.5801 149.349 41.5907L149.341 45.4118ZM144.417 44.3474C144.42 44.5365 144.371 44.7228 144.274 44.8848C144.171 45.0464 144.03 45.1796 143.863 45.2723C143.664 45.3852 143.449 45.4654 143.225 45.51C142.954 45.564 142.679 45.59 142.403 45.5875C142.25 45.5878 142.097 45.5784 141.946 45.5591C141.824 45.5442 141.704 45.5209 141.586 45.4893C141.499 45.4667 141.414 45.4391 141.331 45.4066C141.285 45.3887 141.241 45.3662 141.2 45.3395C141.177 45.3255 141.158 45.307 141.142 45.2852C141.127 45.2604 141.117 45.2334 141.111 45.2051C141.101 45.1627 141.095 45.1194 141.093 45.0759C141.093 45.0243 141.093 44.9597 141.093 44.8822C141.087 44.8221 141.097 44.7616 141.121 44.7065C141.13 44.6919 141.143 44.6801 141.159 44.6724C141.174 44.6646 141.191 44.6613 141.208 44.6626C141.254 44.6657 141.299 44.678 141.341 44.6987L141.558 44.7892C141.662 44.8246 141.769 44.8539 141.877 44.877C142.022 44.9048 142.169 44.9178 142.316 44.9158C142.444 44.9168 142.571 44.9038 142.696 44.877C142.798 44.8543 142.895 44.8151 142.985 44.7607C143.059 44.7166 143.122 44.6555 143.169 44.5825C143.212 44.5138 143.235 44.434 143.235 44.3525C143.237 44.2628 143.217 44.1741 143.176 44.0942C143.131 44.0155 143.066 43.9505 142.987 43.9056C142.886 43.8475 142.775 43.8065 142.661 43.7841C142.506 43.7553 142.348 43.7414 142.191 43.7428H141.657C141.625 43.7445 141.593 43.7401 141.563 43.7299C141.539 43.7215 141.519 43.705 141.507 43.6834C141.491 43.6537 141.482 43.6212 141.479 43.5878C141.479 43.549 141.479 43.4948 141.479 43.4276C141.474 43.3777 141.474 43.3276 141.479 43.2777C141.481 43.2459 141.491 43.215 141.507 43.1873C141.519 43.1659 141.538 43.1488 141.56 43.1382C141.586 43.1285 141.612 43.1241 141.639 43.1253H142.181C142.322 43.1271 142.463 43.1141 142.602 43.0866C142.709 43.0675 142.813 43.0299 142.908 42.9755C142.983 42.9323 143.047 42.8721 143.095 42.7998C143.138 42.7284 143.16 42.6459 143.158 42.5621C143.159 42.4913 143.143 42.4214 143.112 42.358C143.083 42.2926 143.035 42.2377 142.975 42.2004C142.903 42.1531 142.823 42.1198 142.74 42.1022C142.627 42.0755 142.511 42.0633 142.395 42.066C142.255 42.0647 142.114 42.0777 141.976 42.1048C141.867 42.1274 141.758 42.1567 141.652 42.1926C141.558 42.2211 141.481 42.2521 141.417 42.2779C141.373 42.3006 141.324 42.3147 141.274 42.3192C141.26 42.3245 141.243 42.3245 141.228 42.3192C141.213 42.3086 141.201 42.2932 141.195 42.2753C141.182 42.247 141.174 42.2163 141.172 42.1849C141.169 42.1367 141.169 42.0884 141.172 42.0402C141.172 41.9989 141.172 41.9601 141.172 41.9239C141.174 41.8917 141.18 41.8597 141.188 41.8283C141.196 41.8012 141.207 41.7752 141.221 41.7508C141.237 41.7268 141.257 41.705 141.279 41.6862C141.332 41.6552 141.388 41.6293 141.445 41.6087C141.547 41.5702 141.651 41.54 141.757 41.5183C141.892 41.4873 142.03 41.464 142.168 41.4486C142.33 41.4295 142.493 41.4201 142.655 41.4201C142.892 41.4175 143.128 41.44 143.36 41.4873C143.54 41.5235 143.713 41.5908 143.871 41.6862C143.998 41.7635 144.102 41.8731 144.174 42.004C144.245 42.1366 144.28 42.2852 144.277 42.4355C144.279 42.553 144.257 42.6698 144.213 42.7787C144.17 42.8875 144.104 42.9861 144.021 43.0685C143.935 43.1518 143.836 43.22 143.728 43.27C143.61 43.3281 143.484 43.369 143.355 43.3914C143.503 43.4041 143.648 43.439 143.786 43.4948C143.91 43.5453 144.024 43.617 144.123 43.7066C144.215 43.7877 144.289 43.8871 144.34 43.9986C144.389 44.1081 144.412 44.2275 144.407 44.3474H144.417Z" fill="white"/>
<path fill-rule="evenodd" clip-rule="evenodd" d="M16.0829 0L77.7826 16.3052C69.6926 37.6587 27.7826 68.8092 0 72C24.1652 63.3372 65.723 33.3802 66.5373 19.2375L16.0829 0Z" fill="white"/>
<path fill-rule="evenodd" clip-rule="evenodd" d="M77.0678 28.9883C74.6222 36.9225 59.9868 51.8739 58.3453 52.9642C98.0931 48.9467 136.141 48.3808 174.321 47.5386C113.091 50.3599 58.067 54.3645 32.4824 64.0349C50.0256 56.1343 65.0414 44.6579 77.0678 28.9883Z" fill="white"/>
</g>
<defs>
<clipPath id="clip0_82_399">
<rect width="175" height="72" fill="white"/>
</clipPath>
</defs>
</svg>
